<?xml version="1.0" encoding="UTF-8"?>
<!-- Generator: Adobe Illustrator 22.1.0, SVG Export Plug-In . SVG Version: 6.00 Build 0)  -->
<svg version="1.1" id="Слой_1" xmlns="http://www.w3.org/2000/svg" xmlns:xlink="http://www.w3.org/1999/xlink" x="0px" y="0px" viewBox="0 0 50 50" style="enable-background:new 0 0 50 50;" xml:space="preserve">
<style type="text/css">
	.st0{fill:none;}
	.st1{fill-opacity:0.16;}
	.st2{fill:#ED1C24;}
	.st3{fill:#FFFFFF;}
</style>
<g>
	<g transform="translate(-8 -5955)">
		<g>
			<g>
				<g>
					<path id="_x32_6pya_1_" class="st0" d="M8,5980c0-13.8071289,11.1928806-25,25-25s25,11.1928711,25,25s-11.1928825,25-25,25       S8,5993.8071289,8,5980z"/>
				</g>
				<g>
					<path id="_x32_6pya_2_" class="st1" d="M8,5980c0-13.8071289,11.1928806-25,25-25s25,11.1928711,25,25s-11.1928825,25-25,25       S8,5993.8071289,8,5980z"/>
				</g>
			</g>
			<g>
				<path id="_x32_6pya_3_" class="st2" d="M8,5980c0-13.8071289,11.1928806-25,25-25s25,11.1928711,25,25s-11.1928825,25-25,25      S8,5993.8071289,8,5980z"/>
			</g>
		</g>
		<g>
			<g>
				<g>
					<g>
						<path id="_x32_6pyd" class="st3" d="M42.6599998,5988.0698242c-0.2000008,0.2299805-0.4199982,0.4301758-0.6399994,0.6499023        c-0.3499985,0.3300781-0.7000008,0.6699219-1.0200005,1.0498047c-0.5400009,0.5800781-1.1699982,0.8398438-2,0.8398438        h-0.2299995c-1.5699997-0.1000977-3.0299988-0.7099609-4.1300011-1.2402344        c-2.9900017-1.4399414-5.6100006-3.5-7.7999992-6.1000977c-1.7999992-2.1801758-3-4.1801758-3.7999992-6.3398438        c-0.4452-1.0410156-0.6502724-2.1689453-0.6000004-3.2998047c0.0599995-0.6298828,0.2999992-1.1401367,0.7399998-1.5800781        l1.7999992-1.7998047c0.2599983-0.2402344,0.5299988-0.3798828,0.7999992-0.3798828        c0.3400002,0,0.5999985,0.2001953,0.7700005,0.3701172l0.0200005,0.0200195        c0.3199997,0.2998047,0.6300011,0.6098633,0.9500008,0.9501953l0.5,0.5l1.4500008,1.4501953        c0.5600014,0.5600586,0.5600014,1.0800781,0,1.6401367l-0.4599991,0.4501953        c-0.4399986,0.4599609-0.8699989,0.8798828-1.3300018,1.2998047c0,0-0.0200005,0-0.0200005,0.0200195        c-0.4599991,0.4501953-0.3699989,0.8999023-0.2799988,1.2001953l0.0200005,0.0498047        c0.3699989,0.8999023,0.9000015,1.7597656,1.7000008,2.7797852h0.0099983        c1.4599991,1.7998047,3,3.2001953,4.7000008,4.2797852c0.2099991,0.1298828,0.4300003,0.2402344,0.6399994,0.3500977        l0.5299988,0.2797852l0.0600014,0.0400391c0.1800003,0.0898438,0.3499985,0.1298828,0.5200005,0.1298828        c0.4399986,0,0.7200012-0.2797852,0.7999992-0.3701172l1.8100014-1.7998047        c0.1800003-0.1801758,0.4700012-0.3999023,0.7999992-0.3999023c0.3300018,0,0.5999985,0.2001953,0.7599983,0.3901367        h0.0099983l2.9099998,2.9199219C43.1999969,5986.9599609,43.1999969,5987.5200195,42.6599998,5988.0698242z         M40.7599983,5982.5097656c-0.454174-0.5078125-1.0987282-0.8046875-1.7799988-0.8198242        c-0.6500015,0-1.2700005,0.2797852-1.7999992,0.8100586l-1.6699982,1.6699219l-0.4099998-0.2099609        c-0.1773605-0.0854492-0.3508644-0.1787109-0.5200005-0.2797852c-1.5699997-1-2.9900017-2.2998047-4.3499985-3.9702148        c-0.5686035-0.6875-1.048996-1.4433594-1.4300003-2.25c0.4300003-0.3999023,0.8300018-0.7998047,1.2299995-1.2001953        l0.4399986-0.4501953c1.0999985-1.1098633,1.0999985-2.5498047,0-3.6601562l-1.4399986-1.4399414l-0.5-0.5        c-0.3100014-0.3300781-0.6399994-0.6699219-0.9900017-0.9902344c-0.4631271-0.4833984-1.100708-0.7607422-1.7700005-0.7700195        c-0.6399994,0-1.2700005,0.2700195-1.7999992,0.7700195v0.0200195l-1.7999992,1.7998047        c-0.6701145,0.6567383-1.0787983,1.534668-1.1499996,2.4702148c-0.0600185,1.340332,0.1720028,2.6782227,0.6800003,3.9199219        c0.8500004,2.2998047,2.1299992,4.4501953,4.039999,6.7402344c2.266655,2.7255859,5.0897369,4.9345703,8.2799988,6.4799805        c1.5491753,0.7949219,3.2431946,1.2675781,4.9799995,1.3901367c1.2200012,0,2.25-0.4399414,3.0499992-1.3100586        l0.0200005-0.0297852c0.2799988-0.3300781,0.5999985-0.6298828,0.9300003-0.9599609        c0.2299995-0.2099609,0.4599991-0.4399414,0.6899986-0.6801758c0.5200005-0.5400391,0.7999992-1.1801758,0.7999992-1.8300781        s-0.2900009-1.2797852-0.8199997-1.7998047L40.7599983,5982.5097656z"/>
					</g>
				</g>
				<g>
					<g>
						<path id="_x32_6pye" class="st3" d="M34.5099983,5972.9599609c2.8405724,0.4736328,5.0664978,2.699707,5.5400009,5.5400391        c0.0600014,0.3398438,0.3600006,0.5898438,0.7000008,0.5898438l0.1199989-0.0200195        c0.4000015-0.0600586,0.6500015-0.4301758,0.5999985-0.8198242c-0.2883987-1.6738281-1.0925217-3.2158203-2.2999992-4.4101562        c-1.1957779-1.2036133-2.7374573-2.0043945-4.4099998-2.2900391        c-0.3853416-0.0605469-0.7489433,0.1962891-0.8199997,0.5800781        c-0.0771751,0.3789062,0.1673508,0.7485352,0.5461693,0.8256836        C34.4940834,5972.9570312,34.5020294,5972.9584961,34.5099983,5972.9599609z"/>
					</g>
				</g>
				<g>
					<g>
						<path id="_x32_6pyf" class="st3" d="M45.9900017,5978.0400391c-0.4692497-2.7539062-1.7873535-5.2919922-3.7700005-7.2597656        c-2-2-4.5-3.2998047-7.2600021-3.7700195c-0.3865738-0.0664062-0.7536774,0.1933594-0.8199539,0.5800781        c-0.0662727,0.3862305,0.1933784,0.753418,0.5799522,0.8198242c2.4648399,0.4189453,4.7373161,1.597168,6.5,3.3701172        c1.7710037,1.7626953,2.9459152,4.0356445,3.3600006,6.5c0.0600014,0.3500977,0.3600006,0.5898438,0.7000008,0.5898438        l0.1300011-0.0097656c0.381958-0.0595703,0.6431732-0.4179688,0.5834427-0.7998047        c-0.001049-0.0068359-0.0021973-0.0131836-0.0034409-0.0200195V5978.0400391z"/>
					</g>
				</g>
			</g>
		</g>
	</g>
</g>
</svg>